<?xml version="1.0" encoding="utf-8" ?>
<svg xmlns="http://www.w3.org/2000/svg" xmlns:xlink="http://www.w3.org/1999/xlink" width="1024" height="1024">
	<path fill="#473733" d="M312.189 25.7457C313.125 26.0088 313.746 26.3168 314.59 26.7781C315.524 29.6005 307.878 42.517 306.427 46.4596C302.938 55.9402 301.266 65.7853 300.234 75.7976C294.772 128.758 313.253 192.683 335.518 240.278C341.131 252.277 346.71 264.539 355.094 274.889C362.554 271.249 372.922 264.901 381.575 266.748C389.865 268.517 394.449 276.504 398.778 283.026C403.237 282.459 408.048 282.923 412.543 283.114C432.251 283.952 460.776 286.478 478.565 295.277C481.488 292.637 484.401 290.116 487.583 287.79C487.323 283.991 486.989 280.013 487.57 276.23C487.852 274.393 488.251 272.241 489.835 271.09L490.904 271.274C493.853 274.397 494.407 279.345 495.352 283.411C501.094 280.935 507.199 279.215 513.216 277.546C512.433 273.336 512.202 267.247 513.662 263.184C514.101 261.963 514.383 261.327 515.583 260.739L516.477 261.304C519.063 265.544 518.714 270.943 519.088 275.761C524.147 274.495 529.305 273.603 534.425 272.618C534.962 270.136 535.61 267.679 536.365 265.255C537.225 262.574 538.71 258.51 541.312 257.187L542.152 257.646C543.47 261.828 541.485 267.421 540.507 271.617C546.953 271.436 553.949 270.533 560.295 269.35C560.515 264.116 561.12 257.256 564.523 253.088C565.762 252.515 565.749 252.548 567.067 252.926C569.054 255.357 567.413 265.769 567.368 269.183C574.507 268.259 581.792 268.215 588.968 267.513C589.67 261.779 590.503 255.072 592.841 249.742C593.462 248.328 594.051 247.144 595.531 246.606C595.691 246.723 595.881 246.805 596.009 246.955C599.269 250.777 596.784 263.162 596.324 267.932C604.573 264.228 613.557 261.668 621.949 258.141C638.363 251.243 652.994 242.874 668.105 233.545C669.296 229.859 670.162 225.741 673.508 223.401C674.247 223.462 674.498 223.285 674.989 223.938C676.613 226.097 675.608 230.213 675.337 232.735C677.85 235.053 680.748 237.303 681.53 240.772C681.231 241.425 681.293 241.794 680.531 242.003C678.038 242.689 674.573 240.399 672.38 239.314C657.209 257.665 629.455 267.909 607.882 276.773C602.507 278.982 593.053 282.331 588.997 286.172C588.202 286.924 588.238 287.853 588.362 288.876C588.764 292.17 594.176 295.891 596.512 297.895C588.134 296.924 582.057 294.104 574.84 289.861C571.557 290.795 568.28 291.745 565.007 292.713C565.852 295.565 567.835 298.63 568.292 301.502C568.495 302.776 568.309 303.466 567.569 304.474C566.966 304.496 566.936 304.536 566.261 304.337C562.38 303.193 558.08 296.811 556.28 293.438C549.526 295.225 542.551 296.177 535.772 297.982C536.779 299.104 537.8 300.225 538.75 301.396C539.74 302.616 539.933 303.404 539.781 304.937C538.733 305.713 538.505 305.826 537.117 305.636C533.058 305.082 529.632 301.355 527.559 298.131C519.006 300.784 510.384 303.31 501.971 306.382C509.868 313.395 514.828 317.967 520.362 327.15C536.726 330.743 552.902 339.183 567.096 347.973C578.253 338.34 592.88 330.217 605.612 322.754C612.206 325.943 617.733 327.466 625.037 327.887C629.202 322.338 633.361 315.651 638.955 311.443C639.977 310.674 640.707 310.033 642.016 310.25C642.531 315.671 634.756 323.323 631.886 327.864L631.54 328.422C638.257 329.726 645.024 329.732 651.734 331.46C651.873 331.208 652.008 330.955 652.151 330.705C654.607 326.417 661.082 314.596 665.974 313.274L666.551 313.949C666.379 319.934 660.7 327.123 657.553 332.084C664.367 333.038 671.127 334.187 677.8 335.879C680.676 331.404 683.742 326.374 687.72 322.78C689.196 321.446 690.558 320.492 692.612 320.627L693.322 321.531C692.807 325.935 687.126 333.073 684.888 337.259C690.233 338.428 695.565 339.656 700.882 340.945C703.586 336.506 710.88 327.214 716.143 325.949C717.135 325.711 716.727 325.698 717.643 326.302C718.063 331.098 710.206 338.999 707.242 342.673C713.78 344.006 720.56 345.598 726.868 347.773C730.76 343.226 738.736 334.246 744.583 332.778C745.877 332.453 746.432 332.538 747.555 333.203C747.58 336.191 738.419 345.794 736.35 348.863L735.888 349.555C742.915 351.422 749.918 353.374 756.898 355.411C760.97 351.18 765.57 345.37 770.718 342.541C771.9 341.891 772.559 341.592 773.865 341.947C773.908 342.109 773.976 342.265 773.995 342.431C774.413 346.119 767.477 353.873 765.177 356.91C773.099 357.161 781.048 357.959 788.975 357.941C808.51 357.897 844.683 354.742 862.269 346.292C863.792 342.755 864.214 338.41 867.911 336.337L868.732 336.619C870.679 341.044 868.819 346.461 867.533 350.833C870.143 355.086 872.371 358.884 873.691 363.719C873.526 363.646 873.361 363.574 873.198 363.499L872.383 363.12C869.035 361.593 866.006 359.588 862.909 357.619C857.043 359.332 851.051 361.04 845.051 362.2C836.011 363.947 826.84 364.821 817.809 366.707C819.483 368.138 820.998 369.698 822.537 371.27C821.93 371.303 821.33 371.316 820.723 371.336C815.071 371.518 809.589 369.963 803.965 369.623C792.912 368.955 781.594 369.845 770.611 371.08C772.085 371.727 773.588 372.363 774.989 373.159C776.667 374.112 778.491 375.312 779.054 377.213C776.773 378.754 768.997 375.954 766.126 375.549C764.188 375.276 761.69 375.079 760.116 376.469C756.349 379.795 766.702 392.755 766.223 398.023C766.137 398.965 766.234 398.594 765.405 399.334C760.736 398.669 752.206 389.848 748.04 386.991C742.32 383.068 735.32 380.698 728.865 378.263C730.791 381.386 733.154 384.964 733.422 388.695L732.916 389.204C727.515 388.375 720.965 378.979 717.772 374.936C711.067 372.925 704.119 371.841 697.419 369.818C699.935 374.55 701.516 379.68 703.14 384.765C702.979 384.651 702.816 384.538 702.656 384.422L701.861 383.836C696.216 379.747 692.484 373.416 688.103 368.073C678.95 364.842 669.2 363.268 659.607 361.985C660.695 364.4 662.181 366.936 661.988 369.641L661.211 370.091C657.217 368.4 654.13 363.537 651.485 360.191C639.811 356.127 626.308 354.243 614.055 352.88C608.494 356.438 603.57 361.377 598.717 365.837C608.605 371.565 617.787 379.163 626.733 386.234C637.727 394.923 648.821 403.693 659.279 413.029C664.86 418.01 670.039 423.392 675.767 428.215C690.759 421.7 708.874 419.459 724.841 423.244C726.842 419.59 728.842 414.906 731.827 411.984C732.807 411.025 733.296 410.665 734.661 410.726C734.765 410.877 734.89 411.016 734.974 411.179C736.747 414.588 733.577 422.367 732.469 425.998C738.049 429.574 743.004 434.42 747.623 439.132C752.778 436.176 758.242 432.893 763.894 431.035C765.683 430.447 767.054 430.068 768.76 430.969L768.931 432.157C765.663 437.044 757.768 440.67 753.052 444.323C761.34 451.372 768.996 459.301 776.694 466.988C781.951 464.932 788.119 462.206 793.808 462.035C795.447 461.986 796.467 462.183 797.68 463.285L797.481 464.465C793.993 468.785 787.634 470.985 782.61 472.943C788.248 480.183 795.122 486.83 802.108 492.769C808.181 491.108 814.442 489.172 820.714 488.509C822.587 488.311 825.049 487.99 826.603 489.245L826.466 490.335C822.265 495.342 813.993 498.254 808.078 500.89C813.934 507.295 820.185 513.365 826.437 519.38C832.503 518.395 844.123 515.237 849.954 518.183C851.079 518.751 851.405 519.196 851.816 520.352C851.555 520.779 851.43 521.058 850.988 521.381C847.721 523.764 837.846 524.203 833.804 524.148C838.368 530.996 844.174 538.201 849.926 544.082C855.416 543.147 870.233 541.351 874.774 544.588C875.488 545.097 875.249 544.986 875.344 545.987C875.22 546.129 875.112 546.286 874.974 546.414C871.824 549.333 860.484 549.73 856.108 549.674C862.858 558.857 870.441 567.384 877.713 576.147C882.56 575.516 896.455 573.504 900.45 577.003C901.443 577.872 901.433 578.161 901.457 579.378C897.74 585.036 889.391 579.515 884.679 582.694L884.545 583.944C885.689 587.101 888.156 589.498 890.521 591.787C897.638 593.213 907.076 594.04 913.58 597.309C914.722 597.882 915.304 598.214 915.752 599.453C915.288 600.167 914.935 600.431 914.156 600.839C909.291 603.389 899.63 600.311 894.672 598.998C906.63 616.231 924.047 631.788 941.512 643.341C948.337 647.856 955.537 650.661 961.584 656.358C958.928 656.14 956.323 655.65 953.703 655.183C966.208 663.833 978.851 672.77 991.735 680.832C993.556 681.972 995.51 683.148 997.527 683.901C999.678 684.704 1002.64 684.332 1004.42 685.894C1005.04 686.433 1004.91 686.95 1005 687.707L1004.22 688.658C1000.11 690.483 995.28 690.044 990.879 690.036C990.585 694.468 990.842 702.633 987.423 705.729L986.4 705.636C983.057 701.674 984.525 692.507 984.751 687.561L946.599 661.713C947.953 665.464 949.796 669.293 950.793 673.13C951.323 675.173 951.772 677.285 950.699 679.175C947.006 678.453 944.799 671.072 943.578 667.949C942.371 664.861 941.3 661.062 939.527 658.29C935.266 651.626 918.182 639.153 911.42 633.352C915.607 641.631 919.7 649.261 921.11 658.542C910.705 651.45 909.627 637.11 903.459 627.033C899.174 620.033 893.378 614.097 887.879 608.057C885.734 611.319 883.408 614.347 880.954 617.382C880.991 619.977 881.062 622.603 880.846 625.191C880.667 627.343 880.574 631.018 878.854 632.468C876.634 631.839 876.218 628.59 875.881 626.649C873.511 612.994 870.5 609.76 860.806 599.888C861.586 604.216 863.052 610.52 861.994 614.818C861.749 615.813 861.704 615.88 860.818 616.461C856.774 614.612 854.927 596.937 852.978 592.203C849.17 582.956 839.158 574.917 832.113 567.905C833.152 573.968 835.3 580.673 835.485 586.774C835.523 588.01 835.09 588.924 834.206 589.77C832.295 589.667 831.899 587.587 831.328 586.007C824.835 568.051 832.257 565.037 814.737 549.718C815.498 553.796 816.927 558.909 816.179 563.043L815.407 563.283C810.564 560.529 809.888 547.282 806.935 542.29C801.421 532.967 792.747 524.713 785.25 516.934C786.838 522.034 788.61 527.205 789.593 532.458C789.966 534.449 790.879 537.872 789.729 539.552C784.237 537.956 780.411 514.66 777.229 509.038C774.252 503.779 769.054 499.341 764.867 495.036C764.853 497.713 764.95 501.814 763.565 504.165C762.992 505.137 762.727 505.17 761.71 505.475C757.56 504.109 756.579 495.84 755.368 492.157C749.715 474.966 737.62 462.376 724.409 450.608C721.403 455.498 717.761 459.929 714.913 464.945C753.02 506.874 786.083 553.124 813.426 602.747C818.708 612.285 823.985 621.919 828.74 631.726C833.302 641.135 837.3 650.908 842.77 659.845C848.217 668.743 856.024 676.11 862.201 684.523C877.393 705.217 891.7 727.701 903.217 750.659C907.528 759.254 921.141 792.754 918.072 800.513C917.715 801.415 917.622 801.241 916.802 801.572C913.598 800.623 905.829 788.918 902.94 785.794C892.121 774.094 878.291 763.986 864.548 755.941C864.237 781.566 859.48 805.476 849.385 829.038C833.65 828.617 817.921 825.423 802.403 822.945C802.292 842.989 807.38 851.76 821.855 864.833C826.721 869.228 832.407 874.181 838.011 877.578C841.419 879.644 847.691 880.119 850.366 882.854C849.474 883.835 848.23 883.948 846.976 884.123C831.231 886.315 812.605 880.984 797.943 875.481C774.925 866.843 752.965 853.886 731.609 841.752C699.802 823.681 668.452 805.452 639.03 783.615C628.689 776.2 618.835 767.907 608.914 759.936C592.652 746.872 576.457 733.777 561.13 719.607C544.027 703.795 528.001 687.086 510.442 671.724C501.689 683.137 491.972 694.328 482.138 704.815C497.539 714.435 508.587 729.66 524.069 739.272C528.959 742.338 534.113 744.961 539.47 747.11C544.287 749.061 555.98 751.632 559.37 754.491C560.119 755.122 559.884 754.816 560.02 755.871C559.903 755.979 559.799 756.103 559.668 756.195C556.047 758.748 542.513 756.769 537.836 756.198C549.746 765.994 560.866 776.508 575.026 783.134C577.945 784.499 581.061 785.787 584.158 786.674C587.297 787.573 596.875 788.337 598.654 790.719L597.787 791.837C591.223 794.145 582.701 793.086 576.071 791.525C583.845 799.084 592.657 806.535 602.502 811.226C605.852 812.822 612.984 814.422 615.51 816.518L615.275 817.516C611.854 819.939 603.967 818.162 600.09 817.572C611.869 826.231 620.775 835.578 635.432 839.694C639.685 840.888 644.511 839.543 648.643 840.919C649.653 841.255 650.223 841.505 650.672 842.502C650.33 842.907 650.189 843.107 649.824 843.443C645.934 847.025 635.187 845.991 630.006 845.962C632.057 848.812 633.84 851.934 635.711 854.91C642.049 855.417 654.513 855.582 659.803 859.084L659.878 859.796C656.191 862.578 643.821 862.741 639.16 862.635C644.97 872.581 650.956 882.246 657.793 891.524C666.486 893.932 676.603 897.463 684.123 902.418C685.661 903.432 687.273 904.428 687.67 906.297L686.635 906.877C678.728 907.234 669.512 902.96 662.13 900.372C667.151 908.515 673.213 919.26 681.058 924.982C684.385 927.409 688.362 929.277 691.965 931.271C695.333 933.135 700.138 935.172 702.75 938.005C703.588 938.914 703.768 939.425 703.781 940.634L702.938 941.219C697.826 941.535 691.629 938.502 687.116 936.279C695.777 950.987 706.724 964.033 717.028 977.576C717.182 977.58 717.336 977.582 717.49 977.589C720.306 977.707 724.743 977.542 726.722 979.727L726.437 980.755C722.407 983.969 717.211 984.129 712.501 985.74L712.065 985.893C711.702 986.991 711.292 988.072 710.838 989.136C709.846 991.453 709.124 993.051 706.665 994.052L705.845 993.574C705.097 990.866 706.413 986.227 707.755 983.776C708.304 982.773 708.186 983.306 708.217 982.334C701.016 975.699 694.954 967.521 688.922 959.832C679.778 948.112 670.878 936.204 662.226 924.116C657.013 916.709 633.387 879.141 629.687 876.78C621.87 876.208 622.515 892.713 616.881 897.206L616.037 897.093C613.613 892.817 616.755 881.104 617.564 876.26C614.542 873.642 611.691 870.93 608.888 868.078C608.499 870.831 607.902 873.621 607.219 876.314C606.636 878.617 605.58 881.094 603.45 882.328L602.476 882.007C599.268 876.774 601.237 864.954 601.538 858.919C596.228 851.961 588.264 843.802 580.986 838.961C578.537 842.006 577.035 845.434 574.897 848.663C574.03 849.971 572.914 851.519 571.299 851.853L570.715 851.104C569.89 844.78 572.868 838.092 575.011 832.262C569.284 826.061 562.78 820.81 556.285 815.45C554.12 819.853 551.521 824.735 548.636 828.692C547.61 830.098 546.61 831.395 544.842 831.675L544.241 830.733C543.918 823.797 548.288 816.681 551.237 810.595C544.956 802.621 535.677 795.669 527.991 789.068C525.656 793.785 522.826 801.47 518.325 804.292L517.442 804.041C516.038 799.271 522.142 789.394 524.274 784.99C516.83 776.77 508.114 769.598 499.803 762.271C498.257 766.265 495.992 774.284 492.23 776.38C491.387 776.85 491.753 776.721 490.667 776.457C490.318 775.931 490.248 775.887 490.023 775.206C488.46 770.473 493.444 761.895 495.534 757.589C488.422 750.546 481.375 743.466 474.18 736.502C471.07 741.451 467.762 745.59 463.573 749.677C463.863 743.315 466.622 737.912 469.186 732.227C463.399 724.979 458.731 716.412 454.11 708.385C450.172 709.278 443.144 711.611 439.214 710.407C438.248 710.111 438.606 710.319 438.07 709.322C439.657 705.818 446.818 703.184 450.326 701.841C452.908 679.841 462.246 658.24 470.174 637.695C451.236 617.142 433.587 595.826 417.853 572.682C406.693 577.601 396.493 584.629 385.914 590.658C376.961 595.761 366.277 599.477 358.672 606.55C359.039 612.502 360.088 618.516 360.78 624.448C361.608 632.15 362.357 639.86 363.028 647.577C366.464 649.795 371.11 652.659 373.103 656.328C373.645 657.325 373.6 657.508 373.305 658.536C370.448 659.9 366.534 657.891 363.735 656.944C364.628 666.838 365.251 676.754 365.604 686.682C368.857 688.98 372.532 691.259 375.188 694.249C376.204 695.393 376.848 696.319 376.747 697.864L375.68 698.498C372.089 698.781 368.897 697.571 365.578 696.38C365.865 698.987 366.255 701.587 366.606 704.187C368.029 705.263 369.635 706.326 370.88 707.603C371.711 708.454 371.717 708.611 371.734 709.74C370.575 710.965 368.605 711.202 367.008 711.599C366.803 714.862 366.785 718.107 366.786 721.375C370.533 723.391 375.103 725.453 377.714 728.961C378.542 730.074 378.698 730.666 378.568 732.02L377.37 732.837C374.228 733.394 370.985 732.274 367.971 731.415C367.875 736.261 367.821 741.108 367.81 745.955C370.708 749.316 373.889 752.659 375.796 756.709C376.594 758.404 377.242 760.133 376.586 761.97L375.598 762.409C371.16 761.317 367.812 756.1 365.22 752.657C360.234 758.688 349.851 771.619 347.92 779.049C346.588 784.174 346.525 789.281 344.831 794.389L340.492 792.004C336.037 799.484 335.078 806.894 332.029 814.757C331.019 815.879 329.556 816.03 328.149 816.377C322.681 823.022 316.234 828.707 310.768 835.241C311.355 838.832 312.166 844.156 310.176 847.375C309.688 848.164 309.94 847.879 308.871 848.138C306.093 845.999 305.936 841.374 305.383 838.152C302.072 838.006 297.498 838.05 294.542 836.428C293.356 835.777 292.955 835.449 292.615 834.146C292.904 833.661 292.911 833.572 293.419 833.158C296.002 831.055 301.368 831.482 304.506 831.457C315.466 816.901 324.754 801.159 332.196 784.526C336.303 775.58 339.71 766.187 344.755 757.711C343.68 754.098 343.139 750.279 342.457 746.572C338.465 748.693 329.301 753.012 324.63 752.206C323.677 752.042 324.024 752.193 323.415 751.36C323.462 751.171 323.489 750.975 323.558 750.793C325.233 746.363 338.146 741.285 342.667 739.283C341.575 729.436 341.422 719.473 340.477 709.603C334.074 712.261 324.596 717.688 317.633 716.831L317.118 716.136C317.175 715.984 317.215 715.823 317.29 715.679C319.668 711.091 335.065 705.422 340.163 703.256C339.414 695.492 338.988 687.71 337.992 679.969C334.008 681.486 329.954 683.248 325.853 684.406C323.666 685.023 321.119 685.633 319.07 684.486L319.215 683.473C323.515 678.436 331.819 675.888 337.815 673.368C337.133 667.409 337.304 661.126 336.967 655.111C331.092 655.694 324.407 659.572 318.555 658.019L318.515 657.161C322.953 652.417 330.883 650.168 336.862 647.98C337.26 640.116 337.049 632.154 337.077 624.277C333.469 625.779 327.452 628.955 323.563 627.938L323.219 627.148C325.446 622.456 333.445 619.511 337.992 617.324C338.446 611.518 338.881 605.724 339.63 599.946C337.318 599.328 333.953 598.799 332.103 597.243C331.219 596.501 331.166 596.362 331.097 595.278C333.181 593.014 337.061 593.384 339.916 593.256C352.535 571.967 373.055 554.109 391.214 537.653C384.058 525.53 376.593 513.092 371.305 500.019C367.557 490.754 365.116 480.959 361.509 471.617C348.418 469.898 328.873 475.801 315.318 477.756C312.849 491.313 309.55 504.73 307.075 518.304C309.441 519.628 312.121 520.691 313.16 523.374L312.704 524.29C310.174 525.177 308.065 524.361 305.598 523.611C303.591 532.819 300.992 542.097 298.321 551.132C303.098 554.017 306.232 557.005 308.832 561.915C304.361 560.671 300.74 558.823 296.777 556.431C294.737 560.575 293.467 565.227 291.994 569.604C292.964 570.573 294.511 571.965 295.04 573.247C295.536 574.448 295.387 574.777 294.924 575.881C292.858 576.382 291.517 575.037 289.465 575.299C287.084 580.618 284.555 585.831 281.383 590.728C282.684 593.238 284.074 595.821 284.922 598.528C285.475 600.294 286.428 603.119 285.527 604.872L284.49 604.904C280.556 602.304 278.302 597.244 276.001 593.231C262.121 606.754 250.684 621.213 235.879 634.538C232.38 637.687 228.845 640.824 225.004 643.554C221.518 646.031 213.076 650.176 210.705 652.961C207.555 656.662 209.887 663.767 207.481 667.896L206.625 667.981C206.492 667.863 206.343 667.761 206.226 667.627C203.768 664.816 204.001 657.272 203.949 653.729C199.616 652.743 190.18 651.35 187.506 647.523L187.837 646.66C192.714 644.64 200.461 646.875 205.569 647.83C219.073 633.26 233.419 619.502 246.971 604.954C251.808 599.761 258.139 594.08 261.52 587.855C262.619 585.832 262.659 582.202 262.963 579.902C257.688 580.832 252.175 582.055 246.815 582.135C244.719 582.166 241.864 582.212 240.258 580.666L240.365 579.59C245.481 574.437 256.949 574.142 263.858 573.392L271.438 545.919C265.908 545.77 250.002 547.986 246.093 544.734L246.193 543.817C252.579 538.586 265.164 539.922 272.899 540.387L279.067 516.942C274.648 516.999 269.948 517.541 265.566 517.099C263.752 516.916 261.541 516.635 260.321 515.148L260.586 514.321C266.038 510.585 274.721 511.06 281.092 511.279C283.225 505.212 285.132 499.083 287.391 493.057C284.242 493.134 281.079 493.247 277.929 493.217C275.518 493.194 272.216 493.21 270.453 491.405L271.068 490.503C276.459 487.778 282.975 487.673 288.887 487.456C291.91 478.282 295.538 471.249 301.013 463.324C297.017 461.7 290.197 460.819 287.306 457.625L287.487 456.899C291.675 454.993 297.334 456.339 301.697 457.176C311.602 449.932 322.218 444.487 332.747 438.267C320.228 422.337 317.87 400.475 315.972 381.026C309.276 380.44 304.431 378.269 299.918 373.071C294.7 367.061 291.628 358.973 292.402 350.973C293.066 344.098 296.532 338.664 301.734 334.293C239.431 304.547 146.657 288.281 78.26 297.838C68.5433 299.195 58.4301 300.905 49.0653 303.856C42.4013 305.956 31.7278 311.527 25.5479 312.119C24.0295 312.265 23.4559 312.131 22.2581 311.219L22.3383 310.067C26.4289 304.73 36.491 302.099 42.759 300.007C106.912 278.597 200.309 288.795 264.45 307.23C276.907 310.81 289.985 314.2 301.625 319.996C302.896 315.78 304.438 311.512 306.345 307.541C313.858 291.9 326.194 284.216 342.024 278.622C339.997 273.59 337.029 268.631 334.53 263.808C330.441 255.914 326.557 248.03 323.13 239.824C305.281 197.089 290.178 133.87 292.291 87.5647C293.18 68.0757 297.095 39.5263 312.189 25.7457ZM310.081 326.896C311.839 328.662 313.557 330.763 315.842 331.82L317.124 331.744C317.985 330.729 317.978 330.755 317.956 329.424L317.67 328.93C315.773 326.99 314.364 325.548 314.334 322.713C314.258 315.652 321.435 307.92 326.248 303.307C333.979 295.897 348.057 284.626 359.299 284.608C363.785 284.601 370.035 288.24 373.668 284.651C374.669 283.661 375.182 282.57 375.174 281.147C375.169 280.118 374.652 279.126 373.862 278.461C372.804 277.571 371.776 277.342 370.414 277.313C359.88 283.93 356.848 282.356 346.38 286.142C328.301 292.678 314.702 307.84 310.164 326.52C310.135 326.645 310.108 326.771 310.081 326.896ZM302.423 349.669C305.43 352.681 309.324 357.608 313.067 359.508C315.106 355.639 317.133 351.76 319.666 348.182C316.267 345.532 312.918 343.065 309.203 340.875C306.787 343.682 304.625 346.693 302.423 349.669Z"/>
	<path fill="#B5A193" d="M482.351 411.698L486.868 406.319C490.029 410.884 493.391 415.37 495.972 420.299C503.43 434.539 508.571 450.286 513.923 465.41C524.059 493.665 533.209 522.263 541.358 551.154C544.603 562.46 554.86 602.423 560.933 610.202L561.636 610.281C563.398 603.899 556.772 585.942 554.952 579.082C552.139 568.485 549.626 557.811 546.63 547.263C540.469 526.132 533.961 505.104 527.108 484.188C520.128 462.419 513.382 440.727 503.613 420L510.834 423.001C521.21 447.793 530.304 473.103 538.078 498.831C543.014 515.085 547.699 531.414 552.131 547.812C558.229 570.345 572.476 633.339 584.803 648.109C584.201 636.965 576.644 618.393 573.547 606.77C560.375 557.334 549.283 507.742 531.466 459.648C535.009 462.142 538.286 464.725 541.254 467.893C545.873 496.571 556.909 523.851 565.63 551.44C575.431 582.445 584.779 613.531 595.824 644.129C599.351 653.902 602.734 663.813 606.808 673.369C609.533 679.761 612.421 686.263 616.948 691.598C615.438 682.541 611.78 673.778 608.737 665.148C604.504 653.307 600.406 641.419 596.444 629.484C588.642 605.852 582.361 581.747 574.543 558.141C571.736 549.664 567.959 541.601 564.994 533.193C557.781 512.734 551.165 491.805 544.863 471.047C562.567 497.558 567.491 530.586 577.328 560.412C587.465 590.584 598.074 620.595 609.151 650.435C613.339 661.972 619.112 681.568 625.31 691.402C624.504 678.711 618.367 663.364 614.636 651.003C602.329 610.235 588.171 570.212 574.822 529.797C588.761 550.276 596.921 590.89 604.751 615.571C608.875 628.569 635.592 707.134 644.633 710.137C645.287 709.371 645.358 709.047 645.332 708.038C645.156 701.227 639.099 690.169 636.62 683.602L619.053 635.898C615.281 625.742 610.767 615.711 608.076 605.201C617.273 620.186 621.407 638.399 627.318 654.858C632.696 669.832 639.024 684.448 644.8 699.268C649.403 711.076 653.292 723.17 658.675 734.662C660.553 738.671 663.35 745.262 666.999 747.962L667.758 747.944C668.231 746.751 668.269 745.94 668.283 744.683L668.891 744.561C672.337 748.102 674.297 757.566 679.899 757.826C680.535 757.058 680.675 756.899 680.595 755.841C680.3 751.934 656.7 709.101 652.779 701.106C648.757 692.904 645.156 684.579 641.652 676.148C645.292 680.758 648.693 685.376 651.439 690.592C657.658 702.405 684.065 765.111 693.698 767.483C694.399 766.564 694.291 766.417 694.127 765.311C693.253 759.397 686.974 747.44 684.51 741.287C680.6 731.493 677.114 721.535 674.061 711.441C665.754 684.364 659.153 656.862 652.535 629.337C648.616 613.039 644.388 596.772 640.728 580.419C645.446 590.207 649.389 600.008 652.713 610.354C663.61 644.272 672.84 678.905 682.754 713.135C687.411 729.215 691.321 746.129 697.648 761.622C698.549 763.828 700.204 767.517 702.39 768.592C702.534 768.663 702.694 768.693 702.846 768.744C703.874 767.172 703.386 765.196 703.038 763.41C701.067 753.297 696.645 743.18 693.731 733.235C688.064 713.501 682.551 693.723 677.192 673.903C673.736 661.203 669.756 648.458 667.329 635.517C674.34 647.528 678.003 668.027 682.6 681.775C689.16 701.396 696.95 720.647 703.651 740.252C706.007 747.146 709.319 760.618 713.247 765.993L713.866 765.726C717.76 750.673 699.977 713.975 697.669 697.208C704.661 709.915 710.842 734.864 713.847 749.223C714.877 754.147 714.948 759.405 716.293 764.227C716.834 766.165 717.58 768.389 719.17 769.702L719.975 769.383C722.601 762.303 715.771 739.201 713.475 731.234L714.233 731.024C716.525 739.774 719.662 748.26 722.326 756.895C723.863 761.878 724.824 766.828 726.802 771.71C727.575 773.618 728.42 775.451 729.887 776.927L730.488 776.805C730.995 774.849 730.65 773.147 730.472 771.164C729.805 763.746 726.236 755.222 724.095 748.011C717.806 726.831 711.278 705.846 703.281 685.231C698.768 673.597 693.507 662.369 688.641 650.898C694.057 654.695 699.458 658.477 705.051 662.011C708.43 672.416 711.92 682.808 714.992 693.307C719.932 710.191 735.163 770.552 744.276 781.74L745.209 782.164C746.365 780.381 745.688 777.496 745.273 775.49C742.564 762.38 737.565 749.528 733.54 736.778L712.75 669.293C714.467 670.502 715.956 671.672 717.216 673.373C722.809 680.918 726.108 690.79 729.292 699.577C735.72 717.315 740.924 735.48 746.346 753.543C749.368 763.611 752.218 774.028 756.122 783.791C757.114 786.273 759.844 793.482 762.805 793.069C763.695 791.52 763.501 790.756 763.468 788.998L764.023 788.539C765.019 790.042 765.737 791.357 767.371 792.208L768.069 791.93C769.291 787.509 764.052 773.638 762.773 768.665C760.705 760.623 759.252 752.363 757.243 744.282C754.392 732.81 750.846 721.692 747.053 710.504C749.692 712.919 753.222 715.575 754.937 718.711C757.176 722.806 758.209 728.353 759.831 732.802C764.228 744.865 781.366 794.139 788.604 799.415L789.321 799.182C789.805 797.25 789.378 795.04 788.867 793.143C787.21 786.997 784.301 780.922 782.107 774.925C776.322 759.109 770.416 743.43 764.027 727.845C779.701 741.634 784.504 770.124 792.743 789.311C794.567 793.56 797.77 801.762 802.317 803.573L802.914 803.237C804.251 798.145 789.5 762.692 786.459 756.081L786.878 755.314C794.198 769.243 797.591 782.83 803.451 796.997C804.851 800.384 806.799 805.351 810.322 806.787C815.365 804.234 809.031 798.261 810.332 794.573C811.315 797.166 813.948 804.147 816.277 805.473C817.465 806.149 817.822 806.05 819.06 805.757C819.13 805.599 819.223 805.449 819.269 805.283C819.983 802.754 817.421 798.143 816.458 795.78C818.671 798.965 820.897 802.184 823.311 805.219C824.904 807.221 827.399 810.437 830.046 810.725L830.764 810.002C832.9 798.019 792.087 745.656 783.012 735.034C772.755 723.028 761.92 711.446 751.359 699.702C744.227 691.771 736.852 684.051 731.056 675.055C738.639 678.907 745.914 683.862 753.344 688.07C778.997 702.6 809.859 718.136 828.024 742.091C822.886 739.487 818.077 735.875 813.321 732.647C802.135 725.057 791.234 717.37 778.671 712.184C787.965 722.817 799.34 731.04 809.714 740.505C818.422 748.449 825.909 757.448 833.372 766.534C835.931 769.65 841.546 778.866 845.398 779.508C846.192 779.64 846.326 779.239 846.875 778.764C848.058 772.435 836.174 759.973 832.646 754.558L832.253 753.948C838.918 757.827 844.583 763.335 850.036 768.723C849.975 776.945 848.997 785.21 847.74 793.321C834.301 768.452 822.247 756.094 798.021 741.323C805.034 749.762 812.918 757.452 819.86 765.946C829.137 777.297 837.389 789.345 847.373 800.124C845.793 805.802 844.532 811.616 843.123 817.342C837.053 815.701 830.672 814.745 824.509 813.452C818.429 812.177 812.417 810.554 806.413 808.965C774.099 800.407 741.014 791.595 709.988 779.016C698.989 774.557 688.375 769.084 677.738 763.84C668.176 759.126 658.487 754.615 649.006 749.742C581.752 714.389 521.306 667.38 470.479 610.903C458.402 597.525 447.302 583.27 435.955 569.275C417.685 546.741 403.486 528.883 390.048 503.058C385.337 494.003 381.062 484.999 377.942 475.255C382.945 474.332 387.893 473.358 392.833 472.124C394.943 481.272 397.128 495.269 400.942 503.403C401.41 504.4 401.409 504.585 402.47 504.994C407.039 499.532 397.444 478.176 398.781 470.736C399.664 469.966 399.861 469.809 400.997 469.569C401.875 470.306 402.176 471.024 402.398 472.145C402.937 474.867 402.892 477.797 403.249 480.563C404.704 491.84 406.305 506.999 410.563 517.444C411.211 519.032 411.933 520.461 413.531 521.157L414.313 520.679C416.56 510.957 406.944 480.488 408.166 466.655L408.236 465.906C410.148 471.47 410.932 477.448 412.001 483.222C415 499.42 417.415 517.162 424.946 531.957C422.651 510.767 416.845 490.21 414.024 469.124C413.792 467.39 413.547 465.375 414.815 463.966C415.33 463.393 415.22 463.6 416.117 463.642C419.371 466.872 430.366 523.25 432.78 532.024C433.836 535.866 435.118 539.398 436.887 542.968C437.553 535.271 435.411 527.055 434.128 519.456C430.769 499.566 427.329 479.916 421.138 460.666C423.926 458.87 426.679 457.065 429.634 455.552C431.349 467.521 434.045 479.39 435.944 491.34C438.941 510.202 441.579 529.09 445.345 547.822C446.503 553.581 447.29 560.039 449.608 565.433C450.4 567.277 451.417 569.94 453.387 570.737L454.076 570.001C454.52 567.667 454.41 565.477 454.116 563.137C452.154 547.524 448.413 531.767 445.598 516.251L439.12 482.039C437.302 472.206 435.763 462.31 433.233 452.628C434.545 451.572 435.955 450.625 437.329 449.651C439.404 458.103 439.192 467.052 442.578 475.197C446.238 483.999 452.789 490.663 455.913 499.959C461.111 515.431 465.605 531.16 470.501 546.731C473.708 556.933 477.336 566.995 480.612 577.174C485.973 593.824 490.822 611.07 498.801 626.707C502.308 633.58 506.266 639.36 511.937 644.597C509.538 638.357 505.772 632.76 503.549 626.452C499.152 613.976 496.16 600.923 492.839 588.125C487.716 568.386 482.644 548.704 478.654 528.694C483.833 540.441 486.299 553.073 489.234 565.51C495.313 591.279 505.101 639.854 525.052 657.75C522.9 649.208 517.514 641.74 514.9 633.275C506.786 607.002 499.994 579.263 492.697 552.631C496.075 558.154 499.887 563.154 504.308 567.892C509.344 573.288 515.993 578.729 519.363 585.384C525.072 596.659 527.561 611.593 531.188 623.745C534.875 636.098 538.998 649.137 544.879 660.647C546.547 663.912 549.47 666.432 551.226 669.677C554.323 675.404 556.805 682.378 561.55 686.962C562.785 688.155 564.445 689.602 566.254 689.526C566.708 689.109 567.055 688.75 567.407 688.236C567.507 688.09 567.6 687.939 567.697 687.791C569.636 690.222 571.513 692.701 573.326 695.227L578.211 696.135C581.605 699.386 600.372 717.029 603.285 717.799L603.829 717.218C603.693 715.308 602.417 713.703 601.416 712.121L601.812 711.539C605.503 715.563 610.637 721.135 616.497 721.274C617.178 721.29 617.7 721.137 618.316 720.869C618.681 719.872 618.756 720.244 618.387 719.376C617.683 717.718 615.804 716.063 614.438 714.885C607.143 708.588 583.79 664.769 576.761 652.936C564.511 632.428 551.972 612.095 539.148 591.941C535.942 586.998 532.635 582.237 528.631 577.895C518.23 566.619 506.051 557.978 497.109 545.197C489.128 533.789 485.966 520.649 479.972 508.321C466.889 499.827 456.074 484.488 450.04 470.268C446.743 462.499 444.462 454.239 442.091 446.148C447.399 440.93 453.201 436.214 458.812 431.326C462.736 427.907 466.483 424.234 470.506 420.937C478.241 436.82 483.997 453.592 487.647 470.878C489.054 477.247 489.341 483.98 491.291 490.206C492.066 492.681 493.004 495.774 495.567 496.738C496.818 495.891 497.308 495.133 497.601 493.628C498.437 489.336 496.365 482.939 495.522 478.647C491.245 456.867 486.499 436.576 475.738 416.85L480.122 413.403C487.809 434.023 495.811 454.629 502.098 475.73C504.382 483.397 504.514 491.743 506.983 499.265C507.67 501.358 508.569 502.811 510.104 504.37L511.196 504.618C512.49 503.499 512.635 502.006 512.758 500.379C514.035 483.492 490.665 428.088 482.351 411.698Z"/>
	<path fill="#473733" d="M442.605 481.671C443.111 481.95 443.32 482.041 443.752 482.351C449.126 486.215 464.332 567.781 465.969 580.668C464.601 580.65 463.632 580.62 462.358 580.023C459.7 574.704 459.091 566.412 457.933 560.465L450.698 523.194C448.62 512.881 445.771 502.73 443.854 492.385C443.204 488.88 442.381 485.253 442.605 481.671Z"/>
	<path fill="#473733" d="M506.86 577.273C507.134 577.443 507.42 577.593 507.681 577.782C513.849 582.254 519.989 614.025 522.205 622.961C523.908 629.828 526.411 636.835 527.054 643.881C526.293 643.656 525.668 643.544 525.111 642.936C519.688 637.008 507.55 587.152 506.86 577.273Z"/>
	<path fill="#B5A193" d="M395.053 293.127C404.136 292.228 413.644 293.015 422.706 293.97C443.951 296.208 487.124 305.278 500.386 322.381C504.164 327.254 504.734 333.144 503.885 339.066C502.281 350.259 495.033 362.175 487.636 370.49C480.176 378.877 469.371 382.923 460.788 389.988C444.348 403.519 429.961 419.084 412.813 431.872C398.318 441.6 382.829 448.871 367.915 457.795C348.685 445.162 338.244 427.54 332.836 405.413C327.492 383.552 327.457 352.996 339.697 333.258C351.433 314.334 373.347 298.192 395.053 293.127Z"/>
	<path fill="#473733" d="M385.091 420.493C385.761 422.241 386.589 424.166 386.917 426.007C387.156 427.345 387.033 428.123 386.342 429.258C383.221 429.659 380.69 425.271 378.03 424.107C377.395 423.829 376.604 425.757 375.68 426.176C371.878 422.818 369.429 416.995 367.521 412.397C359.034 391.944 352.957 356.169 362.464 335.218C362.988 334.062 363.263 333.471 364.478 332.979C366.768 334.731 365.337 338.692 365.059 341.299C363.444 356.451 364.821 370.496 367.989 385.338C368.538 383.453 368.482 381.403 368.564 379.451C368.267 371.601 366.205 349.006 369.934 342.971L370.77 342.475C371.989 343.039 372.404 343.399 372.858 344.706C374.576 349.656 373.023 357.073 373.655 362.469C375.203 375.696 381.744 399.755 387.492 411.744L387.39 410.898C386.594 404.533 384.411 398.421 382.849 392.215C380.279 382.002 378.576 370.539 378.824 360.017C378.875 357.861 378.807 354.163 380.112 352.402C380.203 352.279 380.324 352.181 380.431 352.071L381.303 352.156C383.334 356.6 385.283 377.012 386.973 384.25C389.426 394.757 392.887 399.509 397.014 408.838C397.426 409.802 397.793 410.706 398.378 411.581C399.492 413.898 401.41 418.231 401.061 420.774C400.866 422.197 400.369 422.446 399.302 423.213C397.342 423.515 395.619 422.669 393.807 422.009C394.138 423.717 394.924 426.387 394.243 428.037C393.932 428.789 393.928 428.542 392.997 428.822C389.654 427.412 387.206 423.295 385.091 420.493Z"/>
	<path fill="#89766E" d="M368.564 379.451C368.905 381.835 369.517 385.434 368.426 387.644C368.098 386.805 367.985 386.239 367.989 385.338C368.538 383.453 368.482 381.403 368.564 379.451Z"/>
	<path fill="#473733" d="M478.217 350.304C472.024 345.574 465.727 342.019 458.332 339.495C446.62 335.497 434.543 334.778 422.722 331.747C421.141 331.341 419.59 330.88 418.355 329.774L418.286 328.914C421.17 326.495 428.124 327.243 431.717 327.568C438.288 328.211 444.786 329.461 451.127 331.302C454.251 332.217 457.347 333.471 460.514 334.2C461.69 334.471 462.543 334.603 463.671 334.07C462.801 332.128 459.23 330.905 457.254 330.156C444.875 325.468 425.304 322.927 412 323.528C408.695 323.677 404.526 324.5 401.517 322.864C401.152 322.059 400.914 322.06 401.324 321.164C402.194 319.259 404.044 318.383 405.939 317.763C426.015 311.189 464.537 320.642 482.895 330.789C485.748 332.366 488.642 334.616 489.628 337.866C490.018 339.152 489.921 340.643 489.255 341.824C488.018 344.017 485.143 345.284 484.477 347.764L484.893 348.599C485.253 349.334 485.452 349.909 485.535 350.733C484.822 351.42 484.149 351.883 483.293 352.379C482.745 353.903 483.019 355.316 483.191 356.884C482.64 357.548 482.741 357.741 481.794 357.798C480.645 357.866 479.914 357.604 478.834 357.27C476.034 355.601 471.416 353.315 468.301 352.476C464.515 350.611 460.733 348.826 456.748 347.417C450.561 345.23 442.193 344.092 437.036 339.987L436.744 339.108C438.816 337.577 443.582 338.332 446.11 338.719C457.437 340.45 467.75 345.948 478.217 350.304Z"/>
	<path fill="#473733" d="M466.509 360.623C459.575 355.765 450.599 354.56 443.912 349.603C442.943 348.885 442.407 348.47 442.192 347.245L442.818 346.636C445.091 345.985 447.328 345.881 449.592 346.657C455.55 348.698 461.569 350.493 467.316 353.092L468.301 352.476C471.416 353.315 476.034 355.601 478.834 357.27L478.494 357.963C478.934 358.186 479.38 358.398 479.805 358.647C481.077 359.392 481.522 360.044 481.891 361.39C480.032 363.411 476.285 362.129 473.758 362.332L473.125 363.409C473.189 364.597 473.314 365.685 472.889 366.826C472.212 368.64 469.212 369.635 467.548 370.407C465.265 368.4 462.689 366.624 460.258 364.793C461.475 366.629 462.968 368.333 464.338 370.062C461.619 371.471 459.271 373.374 456.852 375.235C456.208 375.191 455.969 375.201 455.283 375.013C453.9 374.634 452.909 374.11 452.13 372.951C454.463 368.464 448.77 368.853 448.669 364.072C451.038 362.522 455.06 363.675 457.763 364.087C454.764 362.614 451.663 361.196 448.782 359.506C447.246 358.605 444.848 357.277 444.385 355.435L445.117 354.747C452.051 353.976 460.134 358.168 466.509 360.623Z"/>
	<path fill="#6B5B5A" d="M468.301 352.476C471.416 353.315 476.034 355.601 478.834 357.27L478.494 357.963C474.639 356.786 470.958 354.812 467.316 353.092L468.301 352.476Z"/>
	<path fill="#473733" d="M422.847 305.218C442.402 304.473 462.488 306.985 479.573 317.219C482.069 318.714 486.244 321.18 486.991 324.105L486.308 324.764C482.498 324.855 464.983 316.428 459.649 314.766C444.021 310.744 427.688 309.561 411.707 312.236C403.579 313.597 395.763 315.663 387.47 315.777C396.056 307.027 411.293 305.985 422.847 305.218Z"/>
	<path fill="#473733" d="M343.581 346.772C343.669 346.844 343.761 346.91 343.843 346.988C344.425 347.539 345.208 348.017 345.245 348.85C345.399 352.328 344.34 356.47 343.877 359.95C342.763 368.333 342.741 376.382 344.074 384.761C345.901 396.243 349.645 407.257 354.227 417.91C355.914 421.832 361.605 431.357 361.613 434.734L359.925 436.355C354.021 432.398 350.515 426.514 347.909 420.049C338.883 397.654 333.96 369.543 343.581 346.772Z"/>
	<path fill="#473733" d="M397.638 407.881C394.822 399.183 387.34 371.206 390.145 363.514C390.372 362.89 390.503 362.807 390.887 362.373C392.044 362.06 392.01 362.179 393.072 362.771C396.47 367.606 397.523 380.378 399.312 386.736C400.919 392.445 411.802 414.552 411.103 418.224C410.831 419.649 410.456 419.937 409.362 420.716C407.381 420.797 406.101 420.003 404.655 418.72C402.26 416.596 400.44 413.841 398.954 411.036L398.378 411.581C397.793 410.706 397.426 409.802 397.014 408.838L397.638 407.881Z"/>
	<path fill="#89766E" d="M397.638 407.881C398.077 408.917 398.602 409.97 398.954 411.036L398.378 411.581C397.793 410.706 397.426 409.802 397.014 408.838L397.638 407.881Z"/>
	<path fill="#473733" d="M402.829 380.568C403.548 380.819 404.095 381.014 404.728 381.484C407.388 383.458 420.998 409.28 420.829 412.52C420.791 413.248 419.643 413.971 419.112 414.45C414.573 409.4 415.535 413.147 412.253 412.62C406.213 406.185 403.838 389.092 402.829 380.568Z"/>
	<path fill="#473733" d="M413.312 386.549C419.156 388.442 419.575 393.676 422.199 394.694C422.869 392.927 423.218 391.62 424.841 390.549C425.94 390.44 426.362 390.337 427.271 391.132C429.944 393.47 431.398 399.048 431.284 402.473C430.027 402.509 428.77 402.567 427.515 402.646C426.918 403.111 426.572 403.503 426.18 404.154C425.492 405.296 424.927 406.702 423.646 407.282C422.618 407.747 421.338 407.881 420.306 407.424C416.206 402.468 413.879 392.932 413.312 386.549Z"/>
	<path fill="#B5A193" d="M520.035 426.929C540.195 430.9 560.595 433.631 580.833 437.183C591.614 439.075 603.299 440.775 613.641 444.462C614.987 444.942 617.186 445.535 617.807 446.851C613.257 448.303 605.311 445.857 600.543 445.154C590.085 443.612 550.705 437.566 542.436 440.032C541.389 440.344 540.851 440.59 540.336 441.583C541.285 442.792 542.583 443.031 544.031 443.292C549.19 444.224 554.639 444.487 559.862 445.16C576.437 447.293 593.088 449.25 609.415 452.9C619.505 455.156 629.229 457.837 638.347 462.858C623.485 461.477 568.832 450.349 558.097 454.694L557.944 455.304C564.162 459.789 605.333 462.745 615.732 464.377C625.788 465.956 635.566 467.901 645.277 471.002L648.532 475.133C628.69 471.777 602.753 467.728 583.011 467.401C580.428 467.358 575.75 467.072 573.831 468.938L574.256 469.817C576.445 471.131 578.732 471.893 581.231 472.378C588.365 473.762 596.158 473.671 603.423 474.425C620.112 476.156 637.05 478.544 653.283 482.866C655.043 484.609 656.581 486.499 658.153 488.408C640.456 485.858 622.275 481.832 604.378 481.673C602.44 481.656 598.473 481.37 597.084 482.75C601.358 488.325 645.904 490.83 656.937 495.062C660.182 496.306 662.6 497.985 665.233 500.186C654.503 499.395 643.588 497.294 632.899 495.852C626.94 495.048 602.497 490.808 598.454 493.889C599.175 495.586 601.591 496.134 603.284 496.58C609.661 498.261 616.476 498.902 623.005 499.806C635.105 501.48 647.294 502.982 659.251 505.511C664.207 506.559 669.766 507.638 674.348 509.857C675.949 510.633 678.254 511.718 678.839 513.461C673.82 516.247 620.086 503.086 613.073 506.928C615.025 511.357 670.278 517.886 679.799 520.554C685.625 522.186 690.557 524.544 695.447 528.088C682.239 528.098 639.982 517.803 632.673 521.029C632.837 522.484 635.362 523.197 636.608 523.629C655.626 530.224 696.25 531.136 709.805 544.638C709.946 544.778 710.083 544.921 710.222 545.062C701.818 543.117 693.004 542.741 684.509 541.171C674.519 539.324 664.677 536.262 654.636 534.804C651.822 534.396 648.877 533.933 646.085 534.659L645.962 535.33C653.228 540.994 694.483 547.976 705.983 551.006C716.338 553.734 726.47 557.153 736.565 560.71C740.712 562.171 744.913 563.575 748.967 565.277C755.339 567.952 764.691 573.881 771.376 574.415C772.581 574.511 772.82 574.634 773.783 573.84C773.763 573.684 773.765 573.524 773.722 573.373C772.012 567.226 750.17 558.3 744.193 554.084C744.045 553.979 743.899 553.871 743.752 553.764C748.085 554.877 753.014 556.897 757.494 555.77L757.955 554.991C754.98 548.604 732.877 541.343 725.963 536.905C725.834 536.822 725.708 536.736 725.581 536.652C731.967 538.526 738.465 541.263 745.051 542.267C746.726 542.523 748.947 542.829 750.369 541.733L750.351 540.719C745.507 534.21 723.294 525.78 715.352 522.69L715.688 521.763C719.717 523.108 733.355 528.635 737.007 526.825C737.11 525.649 736.966 525.597 736.227 524.729C728.643 515.822 708.84 511.719 698.454 505.768L699.101 505.905C705.407 507.306 714.926 512.415 721.165 510.764L722.058 509.97C721.591 508.46 720.479 507.758 719.217 506.836C714.763 503.582 709.665 501.206 705.062 498.157C697.442 493.108 690.227 487.338 682.274 482.812C692.554 485.809 701.975 491.23 712.291 494.257C702.893 481.499 685.623 475.763 672.659 467.309C677.918 469.054 683.966 471.843 689.573 471.429L690.548 470.875C689.889 468.644 687.066 467.247 685.087 466.175C676.663 461.611 666.942 460.654 659.046 454.909C661.908 455.733 666.426 457.697 669.28 456.354C669.044 455.022 668.159 454.557 667.044 453.82C658.448 448.138 646.697 446.995 637.382 442.406C665.124 443.606 680.117 455.659 698.44 474.825C705.363 482.077 712.212 489.399 718.987 496.79C769.374 550.918 808.267 614.697 833.317 684.275C838.519 698.684 844.054 712.875 847.016 727.964C849.102 738.594 849.378 749.699 849.95 760.501C846.217 756.134 842.524 751.754 838.288 747.857C840.593 747.043 843.48 746.335 844.84 744.113C845.608 742.858 845.59 741.368 845.076 740.026C843.263 735.296 837.804 731.93 835.291 727.248C838.272 728.712 841.31 730.592 844.65 730.914L845.606 730.47C846.204 728.066 844.588 725.091 843.4 723.082C835.179 709.179 818.864 699.902 806.784 689.629C811.302 691.821 828.157 702.301 831.951 701.074C831.959 698.748 829.438 696.409 827.89 694.865C819.362 686.362 809.747 678.585 800.277 671.172C800.439 671.236 800.603 671.298 800.764 671.364C809.162 674.816 820.194 684.919 829.025 685.194L829.767 684.699C829.105 680.2 820.133 673.991 816.673 671.415C814.418 669.746 812.109 668.151 809.751 666.632L810.506 665.965C813.968 668.173 819.52 672.307 823.735 672.323C824.735 672.327 824.606 672.217 825.279 671.612C825.228 670.937 825.263 670.874 824.98 670.141C822.303 663.195 795.514 647.511 788.128 643.421C789.742 641.992 812.192 658.139 818.38 656.666C818.801 656.137 819.165 655.998 819.024 655.266C817.723 648.543 792.342 634.107 786.012 630.362L786.953 629.556C794.607 634.106 802.676 638.025 810.589 642.106L813.738 638.842C803.605 628.861 790.288 624.611 779.466 615.838C786.797 619.051 795.062 624.759 802.893 626.122C804.042 626.322 803.997 626.28 804.935 625.612L805.027 624.491C801.918 617.996 781.046 607.693 773.949 604.127L774.28 603.277C779.204 604.855 787.223 607.72 792.493 606.48C793.546 606.232 793.157 606.443 793.791 605.483C792.976 603.883 791.64 602.907 790.104 602.034C784.46 598.828 776.649 597.103 770.444 594.92C762.874 592.257 755.336 589.377 747.631 587.128C720.082 579.086 691.783 573.588 664.492 564.62C643.567 557.744 621.642 550.11 603.84 536.793C599.145 533.328 594.892 529.301 591.177 524.802C577.01 507.797 569.161 486.683 556.224 468.858C550.857 461.462 542.857 456.204 536.374 449.845C529.599 443.201 524.883 434.994 520.035 426.929Z"/>
	<path fill="#473733" d="M673.515 550.156C690.653 549.036 737.412 565.123 753.829 572.827C761.019 576.201 783.953 587.093 786.422 593.907C785.747 593.861 785.101 593.765 784.442 593.606C775.289 591.405 765.915 586.57 757.194 582.942C737.739 574.848 718.276 566.255 698.078 560.158C692.394 558.442 676.69 555.203 673.515 550.156Z"/>
	<path fill="#B5A193" d="M643.131 567.691C662.848 572.839 680.026 583.841 698.106 592.708C715.415 601.196 733.233 608.605 750.961 616.161C752.761 618.682 754.217 621.302 755.685 624.024C738.851 613.868 719.915 607.965 701.398 601.708C693.044 598.885 684.704 595.677 676.258 593.17C674.196 592.557 670.268 591.921 668.326 592.97C671.083 600.15 746.735 622.884 760.212 632.746C763.049 634.822 764.773 637.58 766.611 640.497C760.32 637.123 753.869 634.055 747.281 631.305C739.111 627.91 697.112 611.899 690.205 614.759C689.725 617.266 696.077 619.196 698.161 619.959C715.718 626.391 758.396 640.944 771.129 651.695C773.156 653.406 774.324 655.411 775.618 657.675L768.33 653.306C752.924 645.27 728.712 636.003 711.876 631.673C709.478 631.057 704.811 629.725 702.65 630.999C703.285 632.801 705.388 633.961 707.07 634.764C712.376 637.298 718.462 638.862 723.979 640.988C733.432 644.63 775.14 661.737 780.378 667.042C781.337 668.013 781.677 668.529 781.678 669.884L780.571 670.435C779.029 670.351 777.844 670.058 776.425 669.434C773.742 668.254 771.373 666.325 768.727 665.024C763.039 662.226 756.908 659.974 750.956 657.81C747.548 656.571 739.918 652.854 736.581 654.41L736.658 655.198C743.509 661.678 763.289 669.195 772.435 673.6C778.236 676.395 783.794 679.658 789.331 682.935C791.282 690.698 796.12 695.395 799.639 702.294C778.085 687.866 754.903 676.972 731.991 664.994C715.913 656.59 700.274 647.335 684.473 638.425C674.503 622.651 665.81 606.09 656.491 589.933C652.169 582.44 646.709 575.591 643.131 567.691Z"/>
	<path fill="#473733" d="M765.844 675.902C769.667 676.272 773.403 678.024 776.838 679.671C781.281 681.8 787.629 684.659 789.344 689.575C788.788 689.556 788.649 689.567 788.026 689.455C779.807 687.98 770.695 682.713 765.844 675.902Z"/>
	<path fill="#B5A193" d="M522.619 339.748C541.7 346.371 559.131 357.072 575.995 367.992C607.942 388.523 637.948 411.93 665.637 437.921C654.234 434.675 642.369 432.476 631.117 428.799C626.86 427.408 623.1 424.744 618.9 423.164C601.559 416.64 574.724 408.596 556.345 409.005C566.596 416.186 587.529 420.019 600.224 423.669C605.512 425.19 610.603 427.085 615.692 429.163C603.816 428.234 592.374 425.577 580.604 424.047C551.798 420.301 516.506 420.799 492.712 402.075C499.708 393.099 506.919 385.272 512.495 375.19C521.459 377.683 530.711 379.237 539.867 380.851C556.62 384.216 571.582 387.766 586.664 396.271C575.446 393.471 523.792 379.768 516.199 384.202L516.62 385.077C523.982 390.094 551.296 393.396 561.577 395.513C570.741 397.4 579.862 399.502 588.695 402.628C591.687 403.686 597.491 405.397 598.913 408.379C597.972 408.926 597.818 408.808 596.786 408.612C592.751 407.846 588.699 406.277 584.716 405.209C576.897 403.114 568.824 401.394 560.832 400.1C557.777 399.605 548.992 397.862 546.345 399.767L546.485 400.291C552.038 403.923 564.99 405.128 572.057 406.91C581.152 409.166 590.175 411.705 599.111 414.523C605.163 416.415 622.59 423.061 627.322 423.261C628.605 423.315 629.165 423.164 630.077 422.293C628.855 418.885 618.585 414.932 615.263 412.934C612.875 411.496 610.649 409.755 608.435 408.065C611.728 409.123 617.486 411.73 620.815 411.169C621.858 410.994 621.891 410.938 622.543 410.056C620.984 405.917 600.419 397.919 595.309 395.402C597.222 395.535 599.314 396.176 601.078 395.262L601.295 394.333C598.453 390.15 587.78 385.545 583.143 382.633C585.302 383.02 588.692 384.009 590.737 382.964C590.606 381.423 588.01 380.164 586.705 379.374C581.416 376.171 575.468 373.885 570.028 370.905C560.372 365.617 551.062 359.721 541.421 354.412C536.396 351.644 527.582 348.006 523.577 344.186C522.504 343.161 522.692 341.145 522.619 339.748Z"/>
	<path fill="#B5A193" d="M730.052 435.139C735.044 437.253 740.031 442.774 743.825 446.56C753.879 456.591 763.112 467.394 772.66 477.897C779.765 485.711 787.198 493.265 794.492 500.905C803.804 510.659 813.002 520.561 822.497 530.136C831.392 539.106 840.577 547.717 848.993 557.16C861.549 571.295 873.462 585.989 884.696 601.197L881.672 606.289L881.257 606.657L880.441 606.585C864.479 585.76 846.128 567.453 827.944 548.613L766.753 484.639C761.948 479.553 765.21 478.242 761.385 474.173C756.029 468.476 750.683 462.737 745.176 457.186C741.635 453.616 731.21 445.746 729.486 441.827C728.514 439.618 729.449 437.326 730.052 435.139Z"/>
	<path fill="#B5A193" d="M462.66 708.943C465.424 708.947 466.993 709.079 469.37 710.544C476.625 715.013 482.73 722.348 489.243 727.931C508.784 744.678 527.215 762.561 545.6 780.55L626.142 860.947L623.812 864.452C623.133 865.427 622.545 866.079 621.604 866.807C620.323 866.376 619.586 865.528 618.673 864.573C615.149 860.891 612.187 856.532 608.813 852.686C604.137 847.356 599.025 842.349 594.051 837.295C563.586 806.649 532.699 776.427 501.398 746.636C493.448 738.95 485.274 731.491 477.242 723.889C472.223 719.14 466.826 714.472 462.66 708.943Z"/>
	<path fill="#B5A193" d="M610.052 552.143C616.162 554.553 623.013 559.263 629.116 562.34C632.231 574.755 636.206 587.062 639.622 599.41C645.109 619.26 650.295 639.192 655.178 659.199C658.106 670.854 662.274 682.612 663.441 694.592C658.187 689.568 652.18 665.752 649.718 658.31C642.148 635.206 633.979 612.303 625.219 589.623C620.73 578.253 612.803 563.266 610.052 552.143Z"/>
	<path fill="#B5A193" d="M616.665 336.222C641.136 337.156 666.402 342.838 690.207 348.323C711.475 353.224 732.792 358.389 753.311 365.894L750.957 371.577L750.417 372.269C746.705 372.601 720.477 363.531 714.441 361.956C696.342 357.085 678.071 352.877 659.665 349.338C647.464 347.067 635.115 345.431 622.839 343.614L622.059 342.922C620.281 341.336 616.812 338.742 616.665 336.222Z"/>
	<path fill="#B5A193" d="M348.165 603.697C348.758 603.994 349.62 604.432 350.067 604.948C350.803 605.799 351.116 606.921 351.143 608.031C351.197 610.196 350.657 612.513 350.482 614.684C350.137 618.964 350.141 623.201 350.297 627.487C351.394 655.536 352.861 683.569 354.697 711.58C355.445 723.055 357.657 734.948 357.518 746.403C356.388 746.693 355.417 746.974 354.235 746.839C353.418 746.746 353.116 746.495 352.69 745.772C350.237 741.609 350.712 727.825 350.368 722.463C348.544 693.997 347.105 665.665 346.948 637.134C346.889 626.357 346.105 614.303 348.165 603.697Z"/>
	<path fill="#B5A193" d="M476.525 649.194C477.391 649.843 478.249 650.7 478.74 651.676C482.584 659.322 479.776 669.569 477.021 677.17L480.387 681.264C479.204 681.072 477.903 680.794 476.7 680.771C475.352 680.745 474.742 681.405 473.811 682.258C473.392 683.308 473.177 684.068 473.448 685.201C474.001 687.505 476.293 690.941 478.577 691.833C479.249 692.096 479.824 692.304 480.476 691.945C481.871 691.177 482.345 690.119 482.724 688.658C482.995 687.611 483.269 686.759 483.764 685.783C484.686 686.173 486.007 686.905 487.006 686.464C490.164 685.07 488.132 681.835 489.146 679.376C489.727 679.436 490.58 679.592 491.181 679.527C492.589 679.376 492.635 679.019 493.384 677.916C493.79 675.847 493.115 673.883 492.638 671.869L498.488 674.854C498.914 673.771 499.315 672.466 500.101 671.593C500.701 670.927 500.917 670.751 501.813 670.672C501.98 673.931 498.959 676.846 497.027 679.194C491.041 686.45 484.561 693.048 477.601 699.362C476.782 697.465 475.954 694.514 474.258 693.235C473.157 692.406 472.57 692.539 471.325 692.714C469.458 694.672 469.963 697.87 468.335 700.157C467.378 700.692 466.955 701.008 465.82 700.949C464.341 700.872 462.676 700.199 461.705 699.082C460.189 689.713 472.305 658.894 476.525 649.194Z"/>
	<path fill="#B5A193" d="M583.224 276.208C585.289 275.967 587.425 275.756 589.297 276.802L589.077 277.624C579.583 283.32 539.439 287.143 526.525 289.683C516.697 291.616 507.095 294.662 497.587 297.775C495.593 298.273 493.496 298.799 491.491 298.165L491.231 297.473C491.471 297.099 491.583 296.887 491.864 296.568C494.466 293.614 499.877 291.525 503.447 290.075C528.672 279.829 556.311 277.941 583.224 276.208Z"/>
	<path fill="#B5A193" d="M391.389 552.543C392.966 554.478 393.968 557.346 395.349 559.508C397.049 562.169 400.686 565.685 401.545 568.56L400.686 569.469L399.767 569.432C397.49 567.435 396.01 564.173 394.337 561.631C392.889 559.432 391.181 556.845 388.465 556.264C387.204 556.725 387.113 556.775 386.345 557.874C386.289 562.386 391.907 566.417 393.538 570.595C393.984 571.74 393.956 572.252 393.462 573.343L392.65 573.264C389.851 570.342 388.796 566.055 386.236 562.856C384.917 562.279 384.711 561.952 383.359 562.379C381.291 568.205 388.299 573.945 386.907 579.17C384.949 579.9 382.111 573.6 379.309 572.524C377.727 574.15 377.784 574.986 377.617 577.121C377.938 579.319 378.529 581.895 377.446 583.894C375.087 583.414 373.993 580.752 371.513 580.114C368.42 582.024 370.678 585.254 369.369 587.937C368.653 589.406 366.354 587.488 364.956 587.942C363.684 589.785 363.508 592.006 363.116 594.169C360.142 595.633 356.07 597.351 352.752 597.551C351.456 597.629 350.936 597.47 349.95 596.66C349.822 596.162 349.705 595.854 349.771 595.301C350.623 588.177 383.777 557.522 391.389 552.543Z"/>
	<path fill="#B5A193" d="M302.316 478.726C303.397 479.707 304.211 480.459 304.856 481.807C304.052 487.96 301.832 494.335 300.286 500.381C296.078 516.95 291.315 533.373 286.006 549.622C282.594 560.406 279.314 571.335 274.83 581.734L273.884 581.667L273.159 580.738C272.916 578.771 272.978 576.896 273.512 574.974C275.258 568.683 277.633 562.518 279.664 556.31C282.477 547.715 285 539.013 287.591 530.347C292.708 513.236 296.925 495.721 302.316 478.726Z"/>
	<path fill="#B5A193" d="M520.882 354.163C527.786 358.125 534.547 361.748 540.849 366.694C534.272 365.32 528.006 364.277 521.271 364.186C529.299 369.48 538.551 369.59 547.514 372.167C552.262 373.533 556.421 375.675 560.747 378.021C563.834 379.561 566.808 381.488 569.786 383.238C551.181 377.485 532.965 376.203 514.068 372.589C516.606 366.534 518.743 360.368 520.882 354.163Z"/>
	<path fill="#B5A193" d="M735.126 821.211C743.975 822.439 752.46 829.394 760.322 833.445C759.473 837.262 758.903 841.121 758.307 844.984C749.279 840.415 740.382 835.677 732.19 829.702C732.943 826.691 733.729 824 735.126 821.211Z"/>
	<path fill="#B5A193" d="M605.357 330.856C608.29 333.078 609.814 336.631 611.444 339.827L610.856 339.994C604.174 341.932 598.371 344.691 592.602 348.616C589.941 350.426 585.433 355.125 582.347 355.301C579.773 354.211 577.387 352.946 574.951 351.584C584.336 343.807 595.171 337.525 605.357 330.856Z"/>
	<path fill="#B5A193" d="M700.831 802.318C708.303 804.29 715.45 809.242 722.041 813.129C722.25 815.927 723.088 820.19 722.021 822.799C721.689 823.608 721.74 823.371 720.848 823.776L719.201 823.008C710.961 818.111 702.84 813.283 695.125 807.582L700.831 802.318Z"/>
	<path fill="#B5A193" d="M703.71 429.707C709.917 429.167 716.337 430.04 722.434 431.176L720.504 437.472C714.321 437.002 708.193 437.08 702.008 437.404C697.038 437.443 692.003 438.201 687.061 438.723L682.648 434.333C689.535 431.44 696.299 430.344 703.71 429.707Z"/>
	<path fill="#B5A193" d="M667.568 783.587C672.956 782.658 680.363 787.671 685.075 790.212C684.693 794.618 684.537 798.981 684.486 803.403L681.379 801.093C674.18 796.132 667.112 790.983 660.181 785.653C662.587 784.83 665.113 784.253 667.568 783.587Z"/>
	<path fill="#B5A193" d="M629.667 756.951C635.201 757.541 644.85 765.08 649.759 768.245C649.05 771.223 648.665 774.214 647.756 777.154L646.886 777.612C639.333 771.816 632.025 766.034 625.126 759.465L629.667 756.951Z"/>
	<path fill="#B5A193" d="M336.974 446.422L338.152 446.638C339.345 447.828 341.331 449.581 341.564 451.336C341.656 452.026 341.079 452.406 340.676 452.906C338.541 453.829 336.253 453.203 334.017 452.894C332.737 454.454 331.594 456.141 330.411 457.777C328.617 458.146 326.359 458.133 324.691 458.901C323.502 459.45 322.889 460.442 322.586 461.654C322.352 462.588 322.13 463.15 321.661 463.975C319.84 464.933 317.432 464.608 315.417 464.588C312.838 464.516 310.247 464.072 307.689 463.744C316.885 457.024 326.976 451.815 336.974 446.422Z"/>
	<path fill="#B5A193" d="M773.084 841.305L785.695 846.97C785.327 849.708 785.151 852.85 784.319 855.47C783.929 856.696 783.613 857.195 782.511 857.825L781.33 857.362C776.253 854.926 771.321 852.329 766.406 849.582C768.372 846.652 770.804 843.996 773.084 841.305Z"/>
	<path fill="#B5A193" d="M530.873 594.011C535.724 605.834 538.762 618.208 542.453 630.415C545.83 641.635 549.807 652.666 554.364 663.461L553.54 664.03C543.739 646.933 532.655 613.553 530.873 594.011Z"/>
	<path fill="#B5A193" d="M883.831 734.869C885.998 736.408 887.88 740.611 889.29 742.956C886.944 744.961 883.828 749.265 881.013 750.246C879.33 750.833 878.161 749.906 876.626 749.246L869.531 746.36C873.778 741.947 878.897 738.46 883.831 734.869Z"/>
	<path fill="#B5A193" d="M763.468 788.998C758.142 772.414 753.342 755.621 748.303 738.946C743.898 724.366 739.166 709.8 735.229 695.089C742.774 705.808 745.407 721.143 748.82 733.662C753.782 751.867 757.957 770.701 764.023 788.539L763.468 788.998Z"/>
	<path fill="#B5A193" d="M797.661 855.375C804.001 858.019 809.199 865.997 813.433 871.175C811.383 870.538 809.362 869.779 807.335 869.07C801.508 866.642 795.74 864.074 790.037 861.366C792.604 859.402 795.145 857.404 797.661 855.375Z"/>
	<path fill="#B5A193" d="M870.399 717.282C873.162 718.413 874.933 721.743 876.518 724.133C873.361 726.207 870.291 728.375 867.231 730.588C866.3 731.338 865.42 732.177 864.234 732.476C863.521 732.656 863.352 732.387 862.759 732.066C862.592 731.537 862.45 731.188 862.431 730.603C862.287 725.922 867.502 720.496 870.399 717.282Z"/>
	<path fill="#B5A193" d="M895.978 755.457C900.245 758.489 902.132 767.585 903.601 772.506C902.1 771.411 900.648 770.232 899.178 769.094C895.392 765.96 891.269 763.362 887.108 760.766C890.024 758.939 893.024 757.223 895.978 755.457Z"/>
	<path fill="#B5A193" d="M467.601 510.814C469.842 512.111 471.843 515.151 473.283 517.279C474.811 519.534 477.922 524.197 477.396 526.933C476.346 526.612 476.262 526.412 475.173 526.772C474.211 532.87 477.179 540.558 478.831 546.456L478.796 548.341C475.837 543.55 475.081 536.137 473.566 530.761C471.627 524.097 469.639 517.448 467.601 510.814Z"/>
	<path fill="#B5A193" d="M593.71 735.47C597.782 735.876 613.25 744.848 616.573 747.645C616.769 749.042 616.111 749.593 615.416 750.768C614.744 751.584 615.173 751.245 614.071 751.706C609.395 749.454 598.972 739.328 593.71 735.47Z"/>
	<path fill="#B5A193" d="M554.516 640.905C558.185 646.049 564.984 669.531 567.855 677.215C567.75 677.133 567.637 677.061 567.539 676.971C563.076 672.86 555.047 647.735 554.516 640.905Z"/>
	<path fill="#B5A193" d="M570.008 664.889C575.582 669.855 580.207 687.246 584.405 694.735C578.784 690.625 572.138 671.989 570.008 664.889Z"/>
	<path fill="#B5A193" d="M706.291 449.73C707.5 449.689 708.784 449.509 709.887 450.094C710.566 450.454 710.527 450.97 710.74 451.642C710.164 453.967 708.664 455.244 706.751 456.527C703.974 454.694 701.823 452.59 699.544 450.196L706.291 449.73Z"/>
	<path fill="#B5A193" d="M720.71 591.979C722.178 592.061 723.544 592.26 724.966 592.652C730.96 594.305 737.922 596.279 741.119 601.986C733.865 599.701 727.292 595.702 720.71 591.979Z"/>
	<path fill="#B5A193" d="M586.843 688.099C592.968 695.192 596.247 704.038 601.812 711.539L601.416 712.121C595.521 704.779 589.928 697.072 586.843 688.099Z"/>
	<path fill="#B5A193" d="M858.241 696.271C858.688 696.599 858.774 696.637 859.211 697.104C860.749 698.748 862.404 701.38 862.372 703.687L861.463 704.544C860.344 704.297 858.967 704.003 857.95 703.477C856.726 702.845 856.503 702.07 856.099 700.838C856.334 698.967 857.203 697.811 858.241 696.271Z"/>
	<path fill="#B5A193" d="M327.197 464.007C330.732 464.141 332.2 465.595 334.733 467.823C332.34 467.932 329.96 468.16 327.574 468.374C324.558 468.601 321.557 468.801 318.532 468.883C320.631 468.316 323.906 467.985 325.705 466.775C327.046 465.872 326.953 465.519 327.197 464.007Z"/>
	<path fill="#6B5B5A" d="M713.475 731.234C712.272 726.883 711.462 721.892 709.489 717.844C708.895 716.625 708.193 715.041 708.238 713.677C709.775 714.556 711.452 719.682 711.967 721.6C712.776 724.728 713.532 727.87 714.233 731.024L713.475 731.234Z"/>
	<path fill="#6B5B5A" d="M554.364 663.461C556.412 667.887 559.283 671.815 561.153 676.347C557.566 672.518 555.587 668.839 553.54 664.03L554.364 663.461Z"/>
	<path fill="#B5A193" d="M338.79 462.195C339.617 462.596 340.472 462.993 341.251 463.481C342.492 464.258 343.369 464.72 343.719 466.14C342.213 466.436 340.358 466.978 338.96 466.201C338.28 464.715 338.606 463.797 338.79 462.195Z"/>
	<path fill="#89766E" d="M798.397 658.454C802.702 660.525 806.691 663.099 810.506 665.965L809.751 666.632C805.824 664.124 802.131 661.238 798.397 658.454Z"/>
	<path fill="#6B5B5A" d="M773.949 604.127C772.372 603.647 770.733 603.209 769.226 602.535C768.412 602.171 767.817 602.114 767.497 601.227C769.908 601.321 772.068 602.389 774.28 603.277L773.949 604.127Z"/>
	<path fill="#89766E" d="M786.459 756.081C785.474 754.438 784.094 752.617 784.21 750.66C785.593 751.692 786.202 753.752 786.878 755.314L786.459 756.081Z"/>
	<path fill="#89766E" d="M786.012 630.362C784.875 629.652 783.505 629.146 783.095 627.851C784.629 627.889 785.704 628.761 786.953 629.556L786.012 630.362Z"/>
	<path fill="#89766E" d="M709.122 519.42C711.371 520.094 713.52 520.861 715.688 521.763L715.352 522.69C713.085 521.759 711.16 520.81 709.122 519.42Z"/>
</svg>
